<svg width="227" height="64" viewBox="0 0 227 64" fill="none" xmlns="http://www.w3.org/2000/svg">
<path d="M120.246 25.6904H109.37L104.312 34.5323L94.0079 16.5246C90.6291 10.6288 84.1848 10.1268 82.6183 10.0917H82.2716H78.5927L98.0889 44.1791H98.8822H109.758H109.825L109.79 44.1203L120.246 25.6904Z" fill="white"/>
<path d="M140.626 10.092L140.6 10.1096C140.6 10.1096 132.717 9.79979 128.858 16.5513H128.852L113.219 44.1794H124.975L144.264 10.092H140.626Z" fill="white"/>
<path d="M8.44616 13.1666L0 20.1041V6.94079L8.44616 0.000619888V13.1666Z" fill="white"/>
<path d="M8.44616 29.8041L0 36.7504V23.5844L8.44616 16.6407V29.8041Z" fill="white"/>
<path d="M8.44616 46.4492L0 53.392V40.2286L8.44616 33.285V46.4492Z" fill="white"/>
<path d="M10.8558 0.00367355V13.167L59.5862 23.1095C63.0318 17.5718 65.3513 13.1784 66.3491 11.2003L10.8558 0.00367355Z" fill="white"/>
<path d="M10.8558 16.6441V29.8101L49.2506 37.907C52.4153 33.8735 55.2017 29.9005 57.5765 26.2654L10.8558 16.6441Z" fill="white"/>
<path d="M46.7647 40.9701L10.8553 33.2901V46.4543L36.1868 52.2018C40.029 48.6545 43.5649 44.821 46.7647 40.9701Z" fill="white"/>
<path d="M91.4318 58.182H92.9369C93.5178 58.182 94.0313 58.0828 94.4744 57.8906C94.9212 57.7037 95.2915 57.4465 95.5829 57.1201C95.8804 56.7997 96.1051 56.4259 96.2543 56.0116C96.4034 55.5921 96.4789 55.1656 96.4789 54.7224C96.4789 54.3898 96.4228 54.0633 96.3157 53.7597C96.2104 53.4622 96.0436 53.1936 95.8163 52.9663C95.5917 52.7443 95.3117 52.5635 94.9677 52.4345C94.6263 52.3011 94.2235 52.237 93.7513 52.237H92.4761L91.4318 58.182ZM90.5305 50.2527H94.2182C94.7807 50.2527 95.338 50.3352 95.8927 50.4862C96.4526 50.638 96.9537 50.8881 97.3978 51.2208C97.8445 51.5595 98.2087 51.9913 98.4887 52.5231C98.7721 53.0532 98.909 53.6956 98.909 54.4416C98.909 55.3175 98.7572 56.1056 98.4536 56.8164C98.1508 57.529 97.7243 58.1355 97.1819 58.6375C96.636 59.1395 95.9971 59.5239 95.2564 59.7986C94.5122 60.0724 93.7074 60.2075 92.8351 60.2075H88.777L90.5305 50.2527Z" fill="white"/>
<path d="M103.451 50.8593C103.451 51.0462 103.418 51.2209 103.355 51.3789C103.285 51.536 103.195 51.6816 103.078 51.8045C102.961 51.9335 102.821 52.0327 102.664 52.102C102.506 52.1722 102.331 52.2073 102.141 52.2073C101.783 52.2073 101.496 52.102 101.26 51.8923C101.033 51.6816 100.919 51.4078 100.919 51.0814C100.919 50.7022 101.053 50.381 101.309 50.1186C101.564 49.8676 101.882 49.7333 102.255 49.7333C102.602 49.7333 102.888 49.8448 103.113 50.0607C103.338 50.2704 103.451 50.539 103.451 50.8593ZM99.4867 60.2068L100.708 53.2052H102.973L101.721 60.2068H99.4867Z" fill="white"/>
<path d="M108.046 57.1431C107.762 57.1431 107.48 57.1492 107.188 57.1782C106.896 57.201 106.637 57.2484 106.409 57.3248C106.179 57.4002 105.986 57.4994 105.84 57.6337C105.689 57.7618 105.613 57.9365 105.613 58.1523C105.613 58.4332 105.712 58.6254 105.902 58.7246C106.097 58.8237 106.307 58.8711 106.541 58.8711C106.975 58.8711 107.334 58.736 107.625 58.4683C107.912 58.1997 108.099 57.8733 108.171 57.4757L108.244 57.1431H108.046ZM110.531 55.2597C110.531 55.387 110.525 55.5335 110.514 55.6792C110.499 55.8311 110.476 55.9706 110.447 56.1163L109.968 58.8422C109.927 59.087 109.89 59.3371 109.866 59.5881C109.84 59.8391 109.828 60.0497 109.828 60.2068H107.833C107.833 60.1015 107.836 59.9848 107.848 59.8444C107.859 59.711 107.874 59.582 107.888 59.46H107.862C107.349 60.0726 106.637 60.3762 105.726 60.3762C105.484 60.3762 105.233 60.3411 104.974 60.2823C104.717 60.2183 104.486 60.1191 104.27 59.9734C104.061 59.8277 103.891 59.6346 103.76 59.395C103.623 59.1563 103.562 58.865 103.562 58.5201C103.562 57.9549 103.702 57.4994 103.985 57.1431C104.268 56.7815 104.635 56.5068 105.085 56.3094C105.54 56.1163 106.059 55.9767 106.634 55.9065C107.205 55.8311 107.79 55.7898 108.367 55.7898C108.387 55.7082 108.396 55.6441 108.396 55.5967V55.4695C108.396 55.1948 108.299 54.9964 108.107 54.8674C107.914 54.7454 107.649 54.6814 107.296 54.6814C106.981 54.6814 106.66 54.7402 106.339 54.8622C106.012 54.985 105.724 55.1483 105.458 55.3405L104.53 54.0513C104.954 53.7134 105.438 53.4501 105.983 53.2693C106.535 53.0885 107.074 52.9946 107.605 52.9946C108.031 52.9946 108.419 53.0411 108.778 53.1298C109.131 53.2166 109.44 53.3571 109.7 53.5431C109.954 53.73 110.158 53.9635 110.31 54.2435C110.452 54.5287 110.531 54.8622 110.531 55.2597Z" fill="white"/>
<path d="M113.878 57.0738C113.878 57.266 113.91 57.4582 113.959 57.6338C114.021 57.8145 114.108 57.9664 114.228 58.1068C114.353 58.2402 114.499 58.3455 114.68 58.4271C114.858 58.5096 115.074 58.5438 115.328 58.5438C115.616 58.5438 115.882 58.485 116.133 58.3631C116.381 58.2402 116.599 58.0778 116.774 57.8672C116.949 57.6513 117.09 57.4179 117.186 57.1493C117.287 56.8808 117.337 56.6008 117.337 56.2971C117.337 55.8487 117.204 55.4924 116.935 55.2247C116.67 54.9562 116.308 54.8219 115.861 54.8219C115.552 54.8219 115.271 54.8859 115.028 55.0027C114.788 55.1247 114.581 55.2888 114.414 55.4985C114.243 55.703 114.114 55.9417 114.021 56.2103C113.927 56.4841 113.878 56.7702 113.878 57.0738ZM117.769 54.1329L117.925 53.2053H120.051L118.936 59.5592C118.825 60.2069 118.659 60.7791 118.432 61.2802C118.207 61.7822 117.918 62.2026 117.559 62.5405C117.206 62.8731 116.771 63.1294 116.253 63.3102C115.737 63.4866 115.138 63.5796 114.455 63.5796C114.146 63.5796 113.828 63.5506 113.504 63.5032C113.181 63.4515 112.865 63.3751 112.556 63.2759C112.25 63.1768 111.955 63.0539 111.679 62.9082C111.404 62.7617 111.164 62.5932 110.972 62.3948L112.232 60.8081C112.501 61.1117 112.845 61.3382 113.242 61.5084C113.641 61.6708 114.035 61.7533 114.438 61.7533C114.814 61.7533 115.129 61.6997 115.389 61.6067C115.645 61.5084 115.864 61.368 116.042 61.1872C116.22 61.0117 116.361 60.8019 116.466 60.5685C116.564 60.335 116.647 60.0788 116.701 59.798L116.801 59.3372H116.76C116.562 59.5882 116.273 59.8041 115.893 59.991C115.512 60.1832 115.092 60.2762 114.612 60.2762C114.14 60.2762 113.72 60.2069 113.358 60.0604C112.997 59.9085 112.684 59.7111 112.431 59.4539C112.177 59.1977 111.981 58.8879 111.856 58.5324C111.722 58.177 111.657 57.7856 111.657 57.3538C111.657 56.7526 111.754 56.1927 111.946 55.667C112.139 55.1422 112.404 54.6815 112.746 54.29C113.087 53.8934 113.493 53.5844 113.968 53.3624C114.44 53.136 114.963 53.0245 115.537 53.0245C116.042 53.0245 116.485 53.1175 116.865 53.3106C117.243 53.5028 117.536 53.7766 117.725 54.1329H117.769Z" fill="white"/>
<path d="M123.924 54.2206C124.149 53.8704 124.45 53.5843 124.826 53.3623C125.199 53.1358 125.631 53.0244 126.118 53.0244C126.512 53.0244 126.848 53.0823 127.13 53.1938C127.415 53.3044 127.644 53.4623 127.822 53.6536C128.009 53.8529 128.143 54.0802 128.225 54.3373C128.306 54.5944 128.354 54.8621 128.354 55.1482C128.354 55.2764 128.35 55.4054 128.341 55.5335C128.33 55.6555 128.306 55.7836 128.283 55.9065L127.522 60.2068H125.278L125.94 56.4199C125.981 56.204 126.008 56.0118 126.008 55.8371C126.008 55.5677 125.94 55.3466 125.803 55.1658C125.669 54.985 125.424 54.892 125.079 54.892C124.876 54.892 124.686 54.9323 124.52 55.0139C124.36 55.0894 124.21 55.2009 124.086 55.3404C123.966 55.4808 123.858 55.6441 123.776 55.8371C123.697 56.0171 123.642 56.2154 123.604 56.4199L122.926 60.2068H120.681L121.649 54.6524C121.687 54.4768 121.731 54.2434 121.772 53.9634C121.813 53.6835 121.842 53.4334 121.862 53.2052H124.009C124.001 53.3219 123.982 53.479 123.966 53.6835C123.937 53.888 123.916 54.0688 123.899 54.2206H123.924Z" fill="white"/>
<path d="M135.112 56.3092C135.112 55.8888 134.984 55.5387 134.725 55.2596C134.468 54.9787 134.104 54.8383 133.636 54.8383C133.336 54.8383 133.067 54.898 132.82 55.0191C132.58 55.142 132.373 55.3052 132.206 55.5097C132.034 55.7194 131.904 55.959 131.81 56.2276C131.717 56.5023 131.67 56.7814 131.67 57.085C131.67 57.5045 131.796 57.8556 132.049 58.1355C132.303 58.4102 132.662 58.5436 133.129 58.5436C133.432 58.5436 133.704 58.4848 133.946 58.3751C134.187 58.2522 134.4 58.0943 134.573 57.8845C134.745 57.68 134.879 57.4413 134.97 57.1675C135.066 56.8981 135.112 56.6129 135.112 56.3092ZM133.017 60.405C132.51 60.405 132.044 60.3296 131.612 60.1891C131.172 60.0496 130.798 59.8442 130.483 59.5766C130.17 59.3142 129.923 58.9877 129.736 58.6077C129.555 58.2294 129.467 57.8029 129.467 57.3246C129.467 56.741 129.564 56.1925 129.759 55.6677C129.954 55.142 130.243 54.6821 130.608 54.2898C130.976 53.8931 131.425 53.5789 131.949 53.3446C132.479 53.1112 133.071 52.9953 133.736 52.9953C134.255 52.9953 134.73 53.0655 135.168 53.2051C135.611 53.3446 135.993 53.5491 136.308 53.8177C136.624 54.0862 136.878 54.4074 137.059 54.7865C137.242 55.1657 137.333 55.5966 137.333 56.0705C137.333 56.6646 137.233 57.2193 137.035 57.745C136.843 58.2689 136.557 58.7305 136.18 59.1211C135.804 59.5178 135.352 59.8276 134.827 60.0601C134.295 60.2883 133.695 60.405 133.017 60.405Z" fill="white"/>
<path d="M138.935 57.9722C139.118 58.2355 139.352 58.433 139.644 58.5681C139.94 58.7015 140.244 58.7717 140.554 58.7717C140.854 58.7717 141.093 58.7138 141.28 58.6024C141.458 58.4918 141.548 58.34 141.548 58.1416C141.548 57.9547 141.464 57.8081 141.297 57.7037C141.128 57.5993 140.883 57.5001 140.554 57.3948C140.227 57.3009 139.933 57.1964 139.689 57.0797C139.438 56.963 139.232 56.8226 139.065 56.6716C138.893 56.5136 138.765 56.339 138.686 56.1345C138.599 55.9362 138.557 55.6966 138.557 55.4289C138.557 55.0436 138.642 54.6996 138.817 54.4021C138.989 54.0984 139.22 53.8475 139.506 53.6377C139.79 53.4271 140.127 53.2638 140.513 53.1594C140.894 53.0541 141.297 52.9953 141.72 52.9953C142.263 52.9953 142.767 53.0892 143.243 53.27C143.721 53.4508 144.095 53.7184 144.375 54.08L142.958 55.2709C142.826 55.084 142.648 54.9322 142.418 54.8093C142.187 54.6873 141.911 54.6285 141.591 54.6285C141.35 54.6285 141.125 54.6759 140.927 54.7698C140.72 54.8629 140.623 55.0199 140.623 55.242C140.623 55.4052 140.697 55.5281 140.845 55.615C141.001 55.7089 141.227 55.7905 141.539 55.8774C142.193 56.052 142.709 56.2978 143.088 56.6128C143.471 56.9288 143.657 57.3834 143.657 57.9845C143.657 58.4102 143.567 58.7717 143.382 59.0877C143.203 59.4019 142.963 59.659 142.668 59.8626C142.371 60.061 142.035 60.2128 141.659 60.312C141.28 60.4111 140.892 60.4576 140.498 60.4576C139.854 60.4576 139.273 60.3471 138.765 60.1373C138.26 59.9214 137.849 59.6239 137.534 59.25L138.935 57.9722Z" fill="white"/>
<path d="M148.619 50.8593C148.619 51.0462 148.588 51.2209 148.524 51.3789C148.453 51.536 148.366 51.6816 148.249 51.8045C148.13 51.9335 147.993 52.0327 147.833 52.102C147.675 52.1722 147.503 52.2073 147.313 52.2073C146.96 52.2073 146.662 52.102 146.435 51.8923C146.204 51.6816 146.09 51.4078 146.09 51.0814C146.09 50.7022 146.216 50.381 146.479 50.1186C146.736 49.8676 147.05 49.7333 147.424 49.7333C147.773 49.7333 148.057 49.8448 148.281 50.0607C148.509 50.2704 148.619 50.539 148.619 50.8593ZM144.658 60.2068L145.88 53.2052H148.138L146.889 60.2068H144.658Z" fill="white"/>
<path d="M149.589 57.9722C149.769 58.2355 150.005 58.433 150.298 58.5681C150.593 58.7015 150.898 58.7717 151.204 58.7717C151.505 58.7717 151.748 58.7138 151.928 58.6024C152.112 58.4918 152.202 58.34 152.202 58.1416C152.202 57.9547 152.118 57.8081 151.948 57.7037C151.782 57.5993 151.534 57.5001 151.204 57.3948C150.878 57.3009 150.589 57.1964 150.343 57.0797C150.093 56.963 149.883 56.8226 149.714 56.6716C149.545 56.5136 149.419 56.339 149.338 56.1345C149.253 55.9362 149.209 55.6966 149.209 55.4289C149.209 55.0436 149.296 54.6996 149.471 54.4021C149.643 54.0984 149.874 53.8475 150.16 53.6377C150.443 53.4271 150.778 53.2638 151.164 53.1594C151.548 53.0541 151.948 52.9953 152.374 52.9953C152.917 52.9953 153.425 53.0892 153.9 53.27C154.37 53.4508 154.753 53.7184 155.026 54.08L153.608 55.2709C153.477 55.084 153.302 54.9322 153.069 54.8093C152.838 54.6873 152.567 54.6285 152.243 54.6285C152.004 54.6285 151.779 54.6759 151.578 54.7698C151.376 54.8629 151.272 55.0199 151.272 55.242C151.272 55.4052 151.351 55.5281 151.499 55.615C151.651 55.7089 151.881 55.7905 152.193 55.8774C152.847 56.052 153.367 56.2978 153.742 56.6128C154.119 56.9288 154.315 57.3834 154.315 57.9845C154.315 58.4102 154.221 58.7717 154.034 59.0877C153.856 59.4019 153.617 59.659 153.319 59.8626C153.024 60.061 152.689 60.2128 152.31 60.312C151.928 60.4111 151.543 60.4576 151.149 60.4576C150.501 60.4576 149.93 60.3471 149.419 60.1373C148.912 59.9214 148.503 59.6239 148.184 59.25L149.589 57.9722Z" fill="white"/>
<path d="M165.301 52.6746C165.114 52.4175 164.881 52.2253 164.601 52.0971C164.321 51.962 164.003 51.8979 163.659 51.8979C163.497 51.8979 163.332 51.9225 163.151 51.962C162.973 52.0032 162.813 52.0726 162.666 52.1726C162.521 52.2718 162.398 52.3946 162.299 52.5465C162.203 52.6974 162.153 52.8782 162.153 53.095C162.153 53.3749 162.267 53.5961 162.485 53.7593C162.701 53.9226 163.011 54.0805 163.408 54.221C163.836 54.3666 164.222 54.5351 164.554 54.7159C164.895 54.9029 165.181 55.1065 165.415 55.3408C165.651 55.5804 165.827 55.8419 165.951 56.1342C166.071 56.4317 166.132 56.7643 166.132 57.1434C166.132 57.7393 166.01 58.2518 165.758 58.6722C165.511 59.0979 165.19 59.4366 164.796 59.7052C164.403 59.9728 163.965 60.1721 163.478 60.2888C162.987 60.4108 162.506 60.4757 162.03 60.4757C161.672 60.4757 161.313 60.4406 160.96 60.3757C160.601 60.3055 160.263 60.2124 159.933 60.0843C159.607 59.9623 159.303 59.7982 159.021 59.5998C158.742 59.4077 158.504 59.1795 158.305 58.9232L160.033 57.5225C160.228 57.82 160.522 58.0658 160.904 58.2518C161.29 58.4388 161.677 58.5327 162.071 58.5327C162.276 58.5327 162.474 58.509 162.666 58.4686C162.857 58.4274 163.031 58.3571 163.181 58.258C163.332 58.1588 163.446 58.0359 163.539 57.8788C163.626 57.727 163.67 57.5401 163.67 57.3251C163.67 56.974 163.53 56.7064 163.253 56.5019C162.97 56.2974 162.597 56.1227 162.124 55.9648C161.797 55.848 161.494 55.7261 161.205 55.5804C160.916 55.44 160.671 55.2706 160.458 55.0608C160.251 54.8563 160.079 54.6115 159.956 54.3201C159.828 54.0402 159.767 53.6953 159.767 53.2924C159.767 52.7852 159.869 52.3297 160.079 51.9225C160.295 51.5135 160.584 51.1686 160.949 50.8772C161.31 50.5973 161.736 50.3752 162.223 50.2182C162.708 50.0654 163.23 49.99 163.782 49.99C164.076 49.99 164.37 50.0137 164.668 50.0716C164.968 50.1313 165.26 50.212 165.532 50.3164C165.812 50.4226 166.062 50.5622 166.299 50.7193C166.531 50.8772 166.731 51.058 166.891 51.2678L165.301 52.6746Z" fill="white"/>
<path d="M172.819 56.3092C172.819 55.8888 172.693 55.5387 172.436 55.2596C172.179 54.9787 171.813 54.8383 171.343 54.8383C171.045 54.8383 170.774 54.898 170.532 55.0191C170.283 55.142 170.082 55.3052 169.913 55.5097C169.741 55.7194 169.613 55.959 169.516 56.2276C169.426 56.5023 169.379 56.7814 169.379 57.085C169.379 57.5045 169.505 57.8556 169.756 58.1355C170.009 58.4102 170.368 58.5436 170.841 58.5436C171.142 58.5436 171.412 58.4848 171.652 58.3751C171.896 58.2522 172.104 58.0943 172.279 57.8845C172.454 57.68 172.585 57.4413 172.679 57.1675C172.772 56.8981 172.819 56.6129 172.819 56.3092ZM170.724 60.405C170.225 60.405 169.747 60.3296 169.315 60.1891C168.881 60.0496 168.504 59.8442 168.189 59.5766C167.873 59.3142 167.626 58.9877 167.445 58.6077C167.264 58.2294 167.17 57.8029 167.17 57.3246C167.17 56.741 167.27 56.1925 167.468 55.6677C167.664 55.142 167.95 54.6821 168.317 54.2898C168.685 53.8931 169.132 53.5789 169.656 53.3446C170.182 53.1112 170.777 52.9953 171.448 52.9953C171.96 52.9953 172.436 53.0655 172.874 53.2051C173.317 53.3446 173.7 53.5491 174.015 53.8177C174.33 54.0862 174.587 54.4074 174.771 54.7865C174.949 55.1657 175.038 55.5966 175.038 56.0705C175.038 56.6646 174.943 57.2193 174.747 57.745C174.549 58.2689 174.263 58.7305 173.889 59.1211C173.516 59.5178 173.064 59.8276 172.533 60.0601C172.002 60.2883 171.401 60.405 170.724 60.405Z" fill="white"/>
<path d="M175.832 60.2072L177.7 49.5828H179.986L178.105 60.2072H175.832Z" fill="white"/>
<path d="M184.642 59.1918C184.427 59.5305 184.126 59.8157 183.749 60.0439C183.367 60.2712 182.936 60.3879 182.448 60.3879C182.064 60.3879 181.731 60.33 181.448 60.2124C181.168 60.0957 180.937 59.9386 180.754 59.7464C180.573 59.5472 180.439 59.3199 180.354 59.0636C180.27 58.8012 180.225 58.5327 180.225 58.2527C180.225 58.1298 180.232 58.007 180.24 57.8788C180.246 57.7498 180.27 57.6226 180.299 57.4936L181.043 53.2055H183.304L182.633 57.0039C182.613 57.103 182.598 57.2013 182.589 57.3014C182.58 57.4005 182.575 57.4997 182.575 57.5936C182.575 57.8437 182.644 58.0658 182.778 58.2527C182.913 58.4396 183.155 58.5327 183.502 58.5327C183.71 58.5327 183.893 58.4914 184.056 58.4098C184.219 58.3229 184.363 58.2115 184.488 58.0719C184.607 57.9262 184.715 57.7621 184.794 57.5752C184.879 57.3883 184.944 57.1908 184.979 56.9863L185.654 53.2055H187.901L186.916 58.76C186.88 58.9346 186.843 59.1628 186.799 59.4489C186.754 59.728 186.722 59.979 186.708 60.2072H184.57C184.582 60.0896 184.592 59.9333 184.62 59.7227C184.646 59.5121 184.665 59.3374 184.68 59.1918H184.642Z" fill="white"/>
<path d="M188.605 54.8916L188.916 53.2049H190.022L190.346 51.3496H192.539L192.216 53.2049H193.706L193.395 54.8916H191.949L191.44 57.6456C191.432 57.7097 191.426 57.779 191.419 57.8492C191.417 57.9194 191.413 57.9782 191.413 58.0238C191.413 58.2582 191.483 58.4161 191.612 58.503C191.741 58.5908 191.921 58.6312 192.146 58.6312C192.257 58.6312 192.371 58.6197 192.476 58.6022C192.58 58.5846 192.682 58.5671 192.767 58.5434L192.551 60.1661C192.423 60.2179 192.236 60.2714 192 60.3118C191.762 60.353 191.533 60.3759 191.318 60.3759C190.64 60.3759 190.11 60.2363 189.725 59.9616C189.331 59.6939 189.135 59.2613 189.135 58.6724C189.135 58.5557 189.144 58.4267 189.162 58.281C189.173 58.1353 189.194 57.9949 189.223 57.8676L189.756 54.8916H188.605Z" fill="white"/>
<path d="M197.698 50.8593C197.698 51.0462 197.666 51.2209 197.602 51.3789C197.531 51.536 197.441 51.6816 197.324 51.8045C197.208 51.9335 197.067 52.0327 196.913 52.102C196.753 52.1722 196.581 52.2073 196.388 52.2073C196.032 52.2073 195.74 52.102 195.513 51.8923C195.282 51.6816 195.168 51.4078 195.168 51.0814C195.168 50.7022 195.297 50.381 195.557 50.1186C195.814 49.8676 196.128 49.7333 196.502 49.7333C196.849 49.7333 197.135 49.8448 197.359 50.0607C197.587 50.2704 197.698 50.539 197.698 50.8593ZM193.733 60.2068L194.958 53.2052H197.219L195.971 60.2068H193.733Z" fill="white"/>
<path d="M203.643 56.3092C203.643 55.8888 203.512 55.5387 203.255 55.2596C202.999 54.9787 202.634 54.8383 202.166 54.8383C201.87 54.8383 201.595 54.898 201.35 55.0191C201.108 55.142 200.904 55.3052 200.735 55.5097C200.565 55.7194 200.431 55.959 200.34 56.2276C200.244 56.5023 200.198 56.7814 200.198 57.085C200.198 57.5045 200.329 57.8556 200.58 58.1355C200.83 58.4102 201.192 58.5436 201.662 58.5436C201.96 58.5436 202.231 58.4848 202.473 58.3751C202.721 58.2522 202.925 58.0943 203.101 57.8845C203.273 57.68 203.41 57.4413 203.5 57.1675C203.596 56.8981 203.643 56.6129 203.643 56.3092ZM201.542 60.405C201.041 60.405 200.572 60.3296 200.136 60.1891C199.699 60.0496 199.323 59.8442 199.01 59.5766C198.695 59.3142 198.45 58.9877 198.266 58.6077C198.083 58.2294 197.995 57.8029 197.995 57.3246C197.995 56.741 198.091 56.1925 198.286 55.6677C198.482 55.142 198.768 54.6821 199.136 54.2898C199.509 53.8931 199.959 53.5789 200.478 53.3446C201.006 53.1112 201.598 52.9953 202.266 52.9953C202.78 52.9953 203.258 53.0655 203.696 53.2051C204.138 53.3446 204.518 53.5491 204.832 53.8177C205.161 54.0862 205.405 54.4074 205.589 54.7865C205.77 55.1657 205.86 55.5966 205.86 56.0705C205.86 56.6646 205.764 57.2193 205.568 57.745C205.37 58.2689 205.084 58.7305 204.714 59.1211C204.337 59.5178 203.885 59.8276 203.354 60.0601C202.826 60.2883 202.22 60.405 201.542 60.405Z" fill="white"/>
<path d="M209.895 54.2206C210.119 53.8704 210.423 53.5843 210.796 53.3623C211.17 53.1358 211.602 53.0244 212.086 53.0244C212.479 53.0244 212.824 53.0823 213.101 53.1938C213.381 53.3044 213.614 53.4623 213.795 53.6536C213.982 53.8529 214.113 54.0802 214.2 54.3373C214.279 54.5944 214.324 54.8621 214.324 55.1482C214.324 55.2764 214.32 55.4054 214.312 55.5335C214.303 55.6555 214.279 55.7836 214.25 55.9065L213.495 60.2068H211.245L211.908 56.4199C211.955 56.204 211.972 56.0118 211.972 55.8371C211.972 55.5677 211.91 55.3466 211.774 55.1658C211.639 54.985 211.394 54.892 211.047 54.892C210.843 54.892 210.656 54.9323 210.493 55.0139C210.33 55.0894 210.183 55.2009 210.06 55.3404C209.933 55.4808 209.828 55.6441 209.749 55.8371C209.665 56.0171 209.612 56.2154 209.574 56.4199L208.897 60.2068H206.648L207.619 54.6524C207.66 54.4768 207.698 54.2434 207.739 53.9634C207.783 53.6835 207.812 53.4334 207.829 53.2052H209.982C209.971 53.3219 209.953 53.479 209.933 53.6835C209.907 53.888 209.886 54.0688 209.869 54.2206H209.895Z" fill="white"/>
<path d="M184.474 10.8068L184.873 10.0924H162.042H156.681C154.67 10.203 149.128 11.0104 145.945 16.1339L130.071 44.1798H140.425H142.762H165.648L169.925 36.255H147.237L155.505 21.6128C156.592 19.7856 158.267 19.188 159.484 19.0072H173.286C179.147 19.0072 183.236 12.9095 184.474 10.8068Z" fill="white"/>
<path d="M204.603 9.79401H199.238C197.992 9.86422 195.384 10.203 192.826 11.6703C192.805 11.6844 192.784 11.7081 192.765 11.7221C191.026 12.7287 189.944 14.5059 189.944 16.4981C189.944 17.5135 190.264 18.4587 190.819 19.2784L190.81 19.2872L199.235 31.8721C199.235 31.8721 200.691 34.5129 198.205 34.5129H182.49C180.285 34.5129 180.629 33.5343 180.769 33.2561L180.807 33.1833L180.809 33.1789L180.894 33.0218L183.365 28.5934C183.978 27.1989 182.338 26.8022 181.658 26.703H166.699H166.482C165.54 26.7118 161.78 26.8873 160.569 28.9321L158.277 33.0218H173.227C173.545 33.0332 174.319 33.1535 173.839 34.0425L168.388 44.1798H177.025H196.478H201.84C203.088 44.1096 207.725 43.7708 210.286 42.3C210.303 42.2886 210.326 42.2649 210.344 42.2534C212.082 41.238 213.165 39.4705 213.165 37.4748C213.165 36.4173 212.818 35.4318 212.217 34.591L212.229 34.5857L201.569 19.5434C200.72 18.3481 203.275 17.9102 203.275 17.9102H217.229C219.499 17.5986 224.257 16.1716 227 9.79401H204.603Z" fill="white"/>
</svg>
