<svg width="156" height="44" viewBox="0 0 156 44" fill="none" xmlns="http://www.w3.org/2000/svg">
<path d="M82.6359 17.8081H75.1615L71.6857 23.8846L64.6045 11.5092C62.2825 7.45744 57.8538 7.11245 56.7772 7.08833H56.539H54.0107L67.409 30.514H67.9542H75.4287H75.4745L75.4504 30.4736L82.6359 17.8081Z" fill="#003F83"/>
<path d="M96.6419 7.08845L96.6238 7.10051C96.6238 7.10051 91.2066 6.88761 88.5541 11.5274H88.5505L77.8065 30.5142H85.8859L99.1418 7.08845H96.6419Z" fill="#003F83"/>
<path d="M5.80441 9.20147L0 13.9691V4.92295L5.80441 0.153491V9.20147Z" fill="#003F83"/>
<path d="M5.80441 20.635L0 25.4087V16.3607L5.80441 11.5888V20.635Z" fill="#003F83"/>
<path d="M5.80441 32.0739L0 36.8452V27.799L5.80441 23.0272V32.0739Z" fill="#003F83"/>
<path d="M7.46033 0.155654V9.20182L40.9491 16.0345C43.3169 12.2289 44.9109 9.20966 45.5967 7.85023L7.46033 0.155654Z" fill="#003F83"/>
<path d="M7.46033 11.5913V20.6392L33.8461 26.2036C36.021 23.4317 37.9359 20.7014 39.5679 18.2033L7.46033 11.5913Z" fill="#003F83"/>
<path d="M32.1379 28.3086L7.46008 23.0308V32.0775L24.8685 36.0273C27.5089 33.5895 29.9389 30.9551 32.1379 28.3086Z" fill="#003F83"/>
<path d="M62.8342 40.1372H63.8685C64.2678 40.1372 64.6206 40.069 64.9252 39.9369C65.2322 39.8085 65.4867 39.6318 65.6869 39.4074C65.8914 39.1873 66.0458 38.9303 66.1483 38.6457C66.2509 38.3574 66.3027 38.0643 66.3027 37.7597C66.3027 37.5311 66.2641 37.3067 66.1905 37.0981C66.1182 36.8936 66.0036 36.7091 65.8474 36.5528C65.693 36.4003 65.5006 36.276 65.2642 36.1874C65.0295 36.0957 64.7527 36.0517 64.4282 36.0517H63.5519L62.8342 40.1372ZM62.2148 34.688H64.7491C65.1357 34.688 65.5187 34.7447 65.8998 34.8484C66.2846 34.9528 66.629 35.1247 66.9342 35.3532C67.2412 35.586 67.4915 35.8828 67.6839 36.2483C67.8787 36.6126 67.9728 37.054 67.9728 37.5667C67.9728 38.1686 67.8684 38.7102 67.6597 39.1987C67.4517 39.6885 67.1586 40.1052 66.7858 40.4502C66.4107 40.7952 65.9716 41.0593 65.4626 41.2481C64.9511 41.4363 64.3981 41.5292 63.7986 41.5292H61.0098L62.2148 34.688Z" fill="#5C5D5F"/>
<path d="M71.0939 35.1049C71.0939 35.2333 71.0716 35.3534 71.0282 35.4619C70.9799 35.5699 70.9178 35.67 70.8376 35.7544C70.7574 35.8431 70.6609 35.9112 70.5529 35.9589C70.4444 36.0071 70.3243 36.0313 70.1941 36.0313C69.9474 36.0313 69.7508 35.9589 69.5885 35.8147C69.4323 35.67 69.3539 35.4818 69.3539 35.2575C69.3539 34.9969 69.4462 34.7762 69.6223 34.5958C69.7972 34.4234 70.0155 34.3311 70.2719 34.3311C70.5107 34.3311 70.7073 34.4077 70.8617 34.556C71.0161 34.7002 71.0939 34.8847 71.0939 35.1049ZM68.3696 41.5287L69.2092 36.717H70.7652L69.9052 41.5287H68.3696Z" fill="#5C5D5F"/>
<path d="M74.2517 39.4234C74.0569 39.4234 73.8627 39.4276 73.6619 39.4475C73.4617 39.4632 73.2837 39.4958 73.1269 39.5482C72.9689 39.6001 72.8362 39.6682 72.7361 39.7605C72.6318 39.8486 72.5799 39.9686 72.5799 40.117C72.5799 40.31 72.648 40.442 72.7783 40.5102C72.9122 40.5783 73.057 40.6109 73.2174 40.6109C73.5159 40.6109 73.7626 40.518 73.9628 40.3341C74.1595 40.1495 74.2879 39.9252 74.338 39.652L74.388 39.4234H74.2517ZM75.9598 38.1291C75.9598 38.2165 75.9556 38.3173 75.9477 38.4174C75.9375 38.5217 75.9218 38.6176 75.9019 38.7177L75.5726 40.591C75.5448 40.7593 75.5189 40.9312 75.5026 41.1037C75.4845 41.2762 75.4767 41.4209 75.4767 41.5289H74.1052C74.1052 41.4565 74.1076 41.3763 74.1154 41.2798C74.1233 41.1881 74.1335 41.0994 74.1432 41.0156H74.1257C73.7729 41.4366 73.2837 41.6453 72.6577 41.6453C72.4912 41.6453 72.3187 41.6211 72.1408 41.5807C71.9641 41.5367 71.8055 41.4686 71.6571 41.3684C71.513 41.2683 71.3966 41.1356 71.3067 40.971C71.212 40.8069 71.1704 40.6067 71.1704 40.3697C71.1704 39.9813 71.2663 39.6682 71.4611 39.4234C71.6553 39.1749 71.908 38.9861 72.2168 38.8504C72.5298 38.7177 72.8863 38.6218 73.2813 38.5736C73.674 38.5217 74.0756 38.4934 74.4725 38.4934C74.4864 38.4373 74.4924 38.3933 74.4924 38.3607V38.2732C74.4924 38.0845 74.426 37.9481 74.294 37.8595C74.1613 37.7757 73.9791 37.7316 73.7367 37.7316C73.5202 37.7316 73.2994 37.772 73.0787 37.8559C72.8543 37.9403 72.6559 38.0525 72.4731 38.1846L71.8356 37.2986C72.127 37.0664 72.4593 36.8855 72.8344 36.7612C73.2132 36.637 73.5841 36.5724 73.949 36.5724C74.2415 36.5724 74.5081 36.6044 74.7547 36.6653C74.9972 36.725 75.2101 36.8215 75.3886 36.9494C75.5629 37.0779 75.7034 37.2383 75.8078 37.4307C75.9055 37.6267 75.9598 37.8559 75.9598 38.1291Z" fill="#5C5D5F"/>
<path d="M78.2596 39.3756C78.2596 39.5077 78.2819 39.6398 78.3157 39.7604C78.3579 39.8847 78.4176 39.989 78.5003 40.0855C78.5865 40.1772 78.6866 40.2496 78.8109 40.3057C78.9333 40.3623 79.0817 40.3859 79.256 40.3859C79.4544 40.3859 79.6371 40.3455 79.8096 40.2616C79.9797 40.1772 80.1299 40.0656 80.2499 39.9209C80.3705 39.7725 80.467 39.6121 80.5328 39.4275C80.6027 39.243 80.6371 39.0506 80.6371 38.8419C80.6371 38.5337 80.5454 38.2888 80.3609 38.1049C80.1781 37.9203 79.9297 37.828 79.6227 37.828C79.4104 37.828 79.2174 37.8721 79.0497 37.9523C78.8851 38.0361 78.7427 38.1489 78.6281 38.293C78.5105 38.4336 78.4219 38.5976 78.3579 38.7822C78.2934 38.9703 78.2596 39.167 78.2596 39.3756ZM80.9338 37.3546L81.0406 36.7171H82.502L81.736 41.0837C81.6594 41.5288 81.5454 41.922 81.3892 42.2664C81.2348 42.6114 81.0364 42.9003 80.7897 43.1325C80.5466 43.361 80.2481 43.5372 79.8917 43.6614C79.537 43.7826 79.1257 43.8466 78.6565 43.8466C78.4442 43.8466 78.2252 43.8267 78.0027 43.7941C77.7807 43.7585 77.5636 43.706 77.3513 43.6379C77.1408 43.5697 76.9382 43.4853 76.7482 43.3852C76.5594 43.2845 76.3948 43.1687 76.2627 43.0323L77.1288 41.9419C77.3133 42.1506 77.5497 42.3062 77.8224 42.4232C78.0968 42.5348 78.3676 42.5915 78.6444 42.5915C78.9031 42.5915 79.1197 42.5547 79.2982 42.4907C79.4743 42.4232 79.6245 42.3267 79.7469 42.2025C79.8693 42.0818 79.9658 41.9377 80.0382 41.7773C80.1058 41.6168 80.1625 41.4407 80.1999 41.2477L80.2686 40.9311H80.2403C80.104 41.1036 79.9055 41.2519 79.6444 41.3804C79.3826 41.5125 79.0937 41.5764 78.7644 41.5764C78.44 41.5764 78.1511 41.5288 77.9026 41.4281C77.6541 41.3237 77.4394 41.188 77.2651 41.0113C77.0908 40.8352 76.9563 40.6223 76.87 40.378C76.7778 40.1338 76.7337 39.8648 76.7337 39.568C76.7337 39.1549 76.8001 38.7701 76.9322 38.4088C77.0648 38.0482 77.247 37.7315 77.4816 37.4626C77.7162 37.1899 77.9949 36.9776 78.3217 36.8251C78.6462 36.6695 79.0051 36.5929 79.4001 36.5929C79.7469 36.5929 80.0515 36.6568 80.3126 36.7895C80.5726 36.9216 80.7734 37.1097 80.9037 37.3546H80.9338Z" fill="#5C5D5F"/>
<path d="M85.1639 37.4148C85.3183 37.1742 85.5252 36.9776 85.7833 36.825C86.0403 36.6694 86.337 36.5928 86.6717 36.5928C86.9425 36.5928 87.1729 36.6326 87.3671 36.7092C87.5625 36.7852 87.72 36.8937 87.8424 37.0252C87.9709 37.1621 88.0631 37.3183 88.1192 37.495C88.1753 37.6717 88.2079 37.8557 88.2079 38.0523C88.2079 38.1404 88.2055 38.229 88.1994 38.3171C88.1916 38.4009 88.1753 38.489 88.1596 38.5734L87.6361 41.5287H86.0946L86.5493 38.9262C86.5776 38.7779 86.5957 38.6458 86.5957 38.5258C86.5957 38.3406 86.5493 38.1886 86.4552 38.0644C86.3629 37.9401 86.1947 37.8762 85.9576 37.8762C85.8177 37.8762 85.6874 37.9039 85.5735 37.96C85.4631 38.0119 85.3606 38.0885 85.2749 38.1844C85.1923 38.2809 85.1181 38.3931 85.062 38.5258C85.0077 38.6494 84.9697 38.7857 84.9438 38.9262L84.4782 41.5287H82.9348L83.6001 37.7116C83.6266 37.5909 83.6567 37.4305 83.6845 37.2381C83.7128 37.0457 83.7327 36.8738 83.7466 36.717H85.2224C85.2164 36.7972 85.2037 36.9052 85.1923 37.0457C85.1724 37.1862 85.1579 37.3105 85.1464 37.4148H85.1639Z" fill="#5C5D5F"/>
<path d="M92.8525 38.8503C92.8525 38.5614 92.7645 38.3207 92.5865 38.129C92.4098 37.936 92.1595 37.8395 91.8381 37.8395C91.6318 37.8395 91.4473 37.8805 91.2772 37.9637C91.1125 38.0481 90.9702 38.1603 90.8556 38.3008C90.7374 38.445 90.6475 38.6096 90.583 38.7942C90.5191 38.983 90.4871 39.1748 90.4871 39.3834C90.4871 39.6717 90.5733 39.913 90.7476 40.1054C90.9219 40.2942 91.1686 40.3858 91.4895 40.3858C91.6982 40.3858 91.8845 40.3454 92.051 40.27C92.2168 40.1856 92.3634 40.077 92.4822 39.9329C92.6004 39.7924 92.6921 39.6283 92.7548 39.4401C92.8206 39.255 92.8525 39.059 92.8525 38.8503ZM91.4129 41.665C91.0643 41.665 90.744 41.6132 90.4473 41.5167C90.1445 41.4208 89.8876 41.2796 89.6711 41.0957C89.4564 40.9154 89.2863 40.691 89.1578 40.4299C89.0336 40.1699 88.9733 39.8768 88.9733 39.5481C88.9733 39.147 89.0396 38.7701 89.1735 38.4094C89.308 38.0481 89.5064 37.7321 89.7573 37.4625C90.01 37.1899 90.3188 36.974 90.6789 36.813C91.0426 36.6525 91.4497 36.5729 91.9068 36.5729C92.2633 36.5729 92.5896 36.6212 92.8905 36.7171C93.1951 36.813 93.4581 36.9535 93.6746 37.138C93.8917 37.3226 94.066 37.5433 94.1902 37.8039C94.3163 38.0644 94.3784 38.3606 94.3784 38.6862C94.3784 39.0946 94.3103 39.4757 94.174 39.837C94.0419 40.197 93.8453 40.5143 93.5865 40.7827C93.3278 41.0553 93.0172 41.2682 92.6565 41.428C92.291 41.5848 91.8785 41.665 91.4129 41.665Z" fill="#5C5D5F"/>
<path d="M95.4794 39.9929C95.6055 40.1738 95.7659 40.3095 95.9667 40.4024C96.1706 40.4941 96.3793 40.5423 96.5922 40.5423C96.7984 40.5423 96.9625 40.5025 97.091 40.4259C97.2134 40.3499 97.2755 40.2456 97.2755 40.1093C97.2755 39.9808 97.2176 39.8801 97.103 39.8083C96.9866 39.7366 96.8183 39.6684 96.5922 39.596C96.3678 39.5315 96.1652 39.4597 95.9981 39.3795C95.8256 39.2993 95.6839 39.2028 95.5693 39.0991C95.4511 38.9905 95.363 38.8705 95.3087 38.73C95.2484 38.5937 95.2201 38.429 95.2201 38.2451C95.2201 37.9803 95.2786 37.7439 95.3986 37.5394C95.5168 37.3307 95.6754 37.1582 95.8721 37.0141C96.0669 36.8693 96.2991 36.7572 96.5638 36.6854C96.8262 36.613 97.103 36.5726 97.3937 36.5726C97.7664 36.5726 98.1132 36.6371 98.4401 36.7614C98.7688 36.8856 99.0258 37.0696 99.2182 37.3181L98.2441 38.1365C98.1536 38.008 98.0312 37.9037 97.8732 37.8193C97.7146 37.7354 97.5246 37.695 97.3051 37.695C97.1392 37.695 96.9848 37.7276 96.8485 37.7921C96.7062 37.856 96.6398 37.964 96.6398 38.1166C96.6398 38.2288 96.6905 38.3132 96.7924 38.3729C96.8992 38.4375 97.0548 38.4935 97.2695 38.5533C97.7188 38.6733 98.0734 38.8421 98.334 39.0587C98.5969 39.2758 98.7248 39.5882 98.7248 40.0013C98.7248 40.2939 98.6627 40.5423 98.536 40.7595C98.4124 40.9754 98.2477 41.1521 98.0451 41.292C97.8406 41.4283 97.6102 41.5327 97.3515 41.6008C97.091 41.669 96.8244 41.7009 96.5536 41.7009C96.1109 41.7009 95.7116 41.6249 95.363 41.4808C95.0156 41.3324 94.7334 41.128 94.5168 40.871L95.4794 39.9929Z" fill="#5C5D5F"/>
<path d="M102.135 35.1049C102.135 35.2333 102.113 35.3534 102.069 35.4619C102.021 35.5699 101.961 35.67 101.88 35.7544C101.798 35.8431 101.704 35.9112 101.594 35.9589C101.486 36.0071 101.368 36.0313 101.237 36.0313C100.994 36.0313 100.79 35.9589 100.634 35.8147C100.475 35.67 100.397 35.4818 100.397 35.2575C100.397 34.9969 100.483 34.7762 100.664 34.5958C100.841 34.4234 101.056 34.3311 101.313 34.3311C101.553 34.3311 101.748 34.4077 101.903 34.556C102.059 34.7002 102.135 34.8847 102.135 35.1049ZM99.4124 41.5287L100.252 36.717H101.804L100.946 41.5287H99.4124Z" fill="#5C5D5F"/>
<path d="M102.801 39.9929C102.925 40.1738 103.088 40.3095 103.288 40.4024C103.491 40.4941 103.701 40.5423 103.911 40.5423C104.118 40.5423 104.285 40.5025 104.409 40.4259C104.535 40.3499 104.597 40.2456 104.597 40.1093C104.597 39.9808 104.539 39.8801 104.422 39.8083C104.308 39.7366 104.138 39.6684 103.911 39.596C103.687 39.5315 103.489 39.4597 103.32 39.3795C103.148 39.2993 103.003 39.2028 102.887 39.0991C102.771 38.9905 102.685 38.8705 102.629 38.73C102.57 38.5937 102.54 38.429 102.54 38.2451C102.54 37.9803 102.6 37.7439 102.72 37.5394C102.838 37.3307 102.997 37.1582 103.194 37.0141C103.388 36.8693 103.618 36.7572 103.884 36.6854C104.148 36.613 104.422 36.5726 104.715 36.5726C105.088 36.5726 105.437 36.6371 105.764 36.7614C106.087 36.8856 106.35 37.0696 106.538 37.3181L105.563 38.1365C105.473 38.008 105.353 37.9037 105.193 37.8193C105.034 37.7354 104.848 37.695 104.625 37.695C104.461 37.695 104.306 37.7276 104.168 37.7921C104.03 37.856 103.958 37.964 103.958 38.1166C103.958 38.2288 104.012 38.3132 104.114 38.3729C104.218 38.4375 104.376 38.4935 104.591 38.5533C105.04 38.6733 105.397 38.8421 105.656 39.0587C105.914 39.2758 106.049 39.5882 106.049 40.0013C106.049 40.2939 105.984 40.5423 105.856 40.7595C105.733 40.9754 105.569 41.1521 105.365 41.292C105.162 41.4283 104.932 41.5327 104.671 41.6008C104.409 41.669 104.144 41.7009 103.873 41.7009C103.428 41.7009 103.036 41.6249 102.685 41.4808C102.336 41.3324 102.055 41.128 101.836 40.871L102.801 39.9929Z" fill="#5C5D5F"/>
<path d="M113.599 36.3524C113.47 36.1757 113.31 36.0436 113.118 35.9555C112.925 35.8627 112.707 35.8186 112.47 35.8186C112.359 35.8186 112.245 35.8355 112.121 35.8627C111.999 35.891 111.889 35.9386 111.788 36.0074C111.688 36.0756 111.604 36.16 111.536 36.2643C111.47 36.3681 111.435 36.4923 111.435 36.6413C111.435 36.8337 111.514 36.9857 111.664 37.0978C111.812 37.21 112.025 37.3186 112.298 37.4151C112.592 37.5152 112.858 37.631 113.086 37.7552C113.32 37.8837 113.516 38.0236 113.677 38.1847C113.839 38.3493 113.96 38.529 114.046 38.7299C114.128 38.9343 114.17 39.1629 114.17 39.4235C114.17 39.833 114.086 40.1852 113.913 40.4741C113.743 40.7666 113.523 40.9994 113.252 41.184C112.982 41.3679 112.681 41.5048 112.346 41.585C112.009 41.6689 111.678 41.7135 111.351 41.7135C111.105 41.7135 110.858 41.6894 110.616 41.6447C110.369 41.5965 110.137 41.5326 109.91 41.4445C109.686 41.3607 109.477 41.2479 109.283 41.1116C109.092 40.9795 108.928 40.8227 108.791 40.6466L109.978 39.684C110.113 39.8885 110.315 40.0573 110.577 40.1852C110.843 40.3137 111.109 40.3782 111.379 40.3782C111.52 40.3782 111.656 40.3619 111.788 40.3342C111.919 40.3058 112.039 40.2576 112.142 40.1894C112.245 40.1213 112.324 40.0368 112.388 39.9289C112.448 39.8245 112.478 39.6961 112.478 39.5483C112.478 39.3071 112.382 39.1231 112.191 38.9826C111.997 38.8421 111.741 38.722 111.416 38.6135C111.191 38.5333 110.983 38.4494 110.784 38.3493C110.586 38.2528 110.417 38.1364 110.271 37.9923C110.128 37.8517 110.01 37.6835 109.926 37.4832C109.838 37.2908 109.796 37.0538 109.796 36.777C109.796 36.4284 109.866 36.1154 110.01 35.8355C110.159 35.5545 110.357 35.3174 110.608 35.1172C110.856 34.9248 111.149 34.7722 111.484 34.6643C111.817 34.5593 112.175 34.5074 112.555 34.5074C112.757 34.5074 112.959 34.5237 113.164 34.5635C113.37 34.6045 113.57 34.66 113.757 34.7318C113.95 34.8048 114.122 34.9007 114.285 35.0086C114.444 35.1172 114.581 35.2414 114.692 35.3856L113.599 36.3524Z" fill="#5C5D5F"/>
<path d="M118.765 38.8503C118.765 38.5614 118.679 38.3207 118.502 38.129C118.326 37.936 118.074 37.8395 117.751 37.8395C117.546 37.8395 117.36 37.8805 117.194 37.9637C117.023 38.0481 116.885 38.1603 116.768 38.3008C116.65 38.445 116.562 38.6096 116.496 38.7942C116.434 38.983 116.402 39.1748 116.402 39.3834C116.402 39.6717 116.488 39.913 116.66 40.1054C116.835 40.2942 117.081 40.3858 117.406 40.3858C117.613 40.3858 117.799 40.3454 117.963 40.27C118.131 40.1856 118.274 40.077 118.394 39.9329C118.514 39.7924 118.605 39.6283 118.669 39.4401C118.733 39.255 118.765 39.059 118.765 38.8503ZM117.326 41.665C116.983 41.665 116.654 41.6132 116.358 41.5167C116.059 41.4208 115.8 41.2796 115.584 41.0957C115.367 40.9154 115.197 40.691 115.072 40.4299C114.948 40.1699 114.884 39.8768 114.884 39.5481C114.884 39.147 114.952 38.7701 115.088 38.4094C115.223 38.0481 115.419 37.7321 115.672 37.4625C115.925 37.1899 116.232 36.974 116.592 36.813C116.953 36.6525 117.362 36.5729 117.823 36.5729C118.175 36.5729 118.502 36.6212 118.803 36.7171C119.108 36.813 119.371 36.9535 119.587 37.138C119.804 37.3226 119.981 37.5433 120.107 37.8039C120.229 38.0644 120.291 38.3606 120.291 38.6862C120.291 39.0946 120.225 39.4757 120.09 39.837C119.954 40.197 119.758 40.5143 119.501 40.7827C119.245 41.0553 118.934 41.2682 118.569 41.428C118.204 41.5848 117.791 41.665 117.326 41.665Z" fill="#5C5D5F"/>
<path d="M120.836 41.5289L122.12 34.2276H123.691L122.398 41.5289H120.836Z" fill="#5C5D5F"/>
<path d="M126.891 40.831C126.743 41.0638 126.536 41.2598 126.277 41.4167C126.015 41.5729 125.719 41.6531 125.383 41.6531C125.119 41.6531 124.89 41.6133 124.696 41.5325C124.503 41.4522 124.345 41.3443 124.219 41.2122C124.094 41.0753 124.002 40.9191 123.944 40.743C123.886 40.5626 123.855 40.3781 123.855 40.1857C123.855 40.1013 123.86 40.0168 123.866 39.9288C123.869 39.8401 123.886 39.7527 123.906 39.664L124.417 36.7172H125.971L125.51 39.3275C125.496 39.3956 125.486 39.4632 125.48 39.5319C125.474 39.6001 125.47 39.6682 125.47 39.7327C125.47 39.9046 125.518 40.0572 125.61 40.1857C125.702 40.3142 125.869 40.3781 126.107 40.3781C126.25 40.3781 126.376 40.3497 126.488 40.2936C126.6 40.2339 126.699 40.1573 126.785 40.0614C126.867 39.9613 126.941 39.8485 126.995 39.7201C127.054 39.5916 127.098 39.4559 127.122 39.3154L127.586 36.7172H129.13L128.453 40.5343C128.429 40.6543 128.403 40.8111 128.373 41.0077C128.342 41.1995 128.32 41.372 128.311 41.5288H126.841C126.849 41.448 126.857 41.3407 126.875 41.1959C126.893 41.0512 126.907 40.9311 126.917 40.831H126.891Z" fill="#5C5D5F"/>
<path d="M129.614 37.876L129.828 36.7168H130.588L130.81 35.4418H132.318L132.096 36.7168H133.12L132.906 37.876H131.912L131.562 39.7686C131.557 39.8126 131.552 39.8603 131.548 39.9085C131.546 39.9568 131.544 39.9972 131.544 40.0285C131.544 40.1896 131.592 40.2981 131.681 40.3578C131.769 40.4182 131.893 40.4459 132.047 40.4459C132.123 40.4459 132.202 40.4381 132.274 40.426C132.346 40.4139 132.416 40.4019 132.474 40.3856L132.326 41.5008C132.238 41.5363 132.11 41.5731 131.947 41.6009C131.783 41.6292 131.626 41.6449 131.478 41.6449C131.013 41.6449 130.648 41.549 130.383 41.3602C130.113 41.1763 129.978 40.8789 129.978 40.4742C129.978 40.394 129.984 40.3054 129.997 40.2053C130.004 40.1051 130.019 40.0086 130.038 39.9212L130.405 37.876H129.614Z" fill="#5C5D5F"/>
<path d="M135.863 35.1049C135.863 35.2333 135.841 35.3534 135.797 35.4619C135.748 35.5699 135.686 35.67 135.606 35.7544C135.526 35.8431 135.429 35.9112 135.323 35.9589C135.213 36.0071 135.095 36.0313 134.962 36.0313C134.718 36.0313 134.517 35.9589 134.361 35.8147C134.203 35.67 134.124 35.4818 134.124 35.2575C134.124 34.9969 134.213 34.7762 134.391 34.5958C134.568 34.4234 134.784 34.3311 135.041 34.3311C135.279 34.3311 135.476 34.4077 135.63 34.556C135.786 34.7002 135.863 34.8847 135.863 35.1049ZM133.138 41.5287L133.98 36.717H135.534L134.676 41.5287H133.138Z" fill="#5C5D5F"/>
<path d="M139.949 38.8503C139.949 38.5614 139.859 38.3207 139.682 38.129C139.506 37.936 139.255 37.8395 138.934 37.8395C138.73 37.8395 138.541 37.8805 138.373 37.9637C138.206 38.0481 138.066 38.1603 137.95 38.3008C137.834 38.445 137.741 38.6096 137.679 38.7942C137.613 38.983 137.581 39.1748 137.581 39.3834C137.581 39.6717 137.671 39.913 137.844 40.1054C138.016 40.2942 138.264 40.3858 138.587 40.3858C138.792 40.3858 138.978 40.3454 139.145 40.27C139.315 40.1856 139.455 40.077 139.576 39.9329C139.694 39.7924 139.788 39.6283 139.85 39.4401C139.916 39.255 139.949 39.059 139.949 38.8503ZM138.505 41.665C138.16 41.665 137.838 41.6132 137.539 41.5167C137.238 41.4208 136.98 41.2796 136.765 41.0957C136.548 40.9154 136.38 40.691 136.253 40.4299C136.127 40.1699 136.067 39.8768 136.067 39.5481C136.067 39.147 136.133 38.7701 136.267 38.4094C136.402 38.0481 136.598 37.7321 136.851 37.4625C137.107 37.1899 137.417 36.974 137.773 36.813C138.136 36.6525 138.543 36.5729 139.002 36.5729C139.355 36.5729 139.684 36.6212 139.985 36.7171C140.289 36.813 140.55 36.9535 140.766 37.138C140.991 37.3226 141.16 37.5433 141.286 37.8039C141.41 38.0644 141.472 38.3606 141.472 38.6862C141.472 39.0946 141.406 39.4757 141.271 39.837C141.136 40.197 140.939 40.5143 140.684 40.7827C140.426 41.0553 140.115 41.2682 139.75 41.428C139.387 41.5848 138.97 41.665 138.505 41.665Z" fill="#5C5D5F"/>
<path d="M144.245 37.4148C144.399 37.1742 144.608 36.9776 144.864 36.825C145.121 36.6694 145.418 36.5928 145.751 36.5928C146.021 36.5928 146.258 36.6326 146.448 36.7092C146.641 36.7852 146.801 36.8937 146.925 37.0252C147.053 37.1621 147.144 37.3183 147.204 37.495C147.258 37.6717 147.289 37.8557 147.289 38.0523C147.289 38.1404 147.286 38.229 147.28 38.3171C147.274 38.4009 147.258 38.489 147.238 38.5734L146.719 41.5287H145.173L145.628 38.9262C145.661 38.7779 145.672 38.6458 145.672 38.5258C145.672 38.3406 145.63 38.1886 145.536 38.0644C145.444 37.9401 145.275 37.8762 145.037 37.8762C144.897 37.8762 144.768 37.9039 144.656 37.96C144.544 38.0119 144.443 38.0885 144.359 38.1844C144.271 38.2809 144.199 38.3931 144.145 38.5258C144.087 38.6494 144.051 38.7857 144.025 38.9262L143.559 41.5287H142.014L142.681 37.7116C142.709 37.5909 142.735 37.4305 142.763 37.2381C142.794 37.0457 142.814 36.8738 142.825 36.717H144.305C144.297 36.7972 144.285 36.9052 144.271 37.0457C144.253 37.1862 144.239 37.3105 144.227 37.4148H144.245Z" fill="#5C5D5F"/>
<path d="M126.775 7.57963L127.049 7.08869H111.359H107.675C106.293 7.16469 102.484 7.71955 100.297 11.2406L89.3882 30.5144H96.5038H98.1099H113.837L116.776 25.0682H101.185L106.867 15.0058C107.614 13.7501 108.765 13.3394 109.601 13.2152H119.086C123.114 13.2152 125.924 9.0247 126.775 7.57963Z" fill="#003F83"/>
<path d="M140.608 6.88375H136.922C136.065 6.932 134.273 7.16481 132.515 8.17322C132.501 8.18287 132.486 8.19915 132.473 8.2088C131.278 8.90058 130.534 10.1219 130.534 11.491C130.534 12.1888 130.754 12.8383 131.135 13.4017L131.129 13.4077L136.919 22.0564C136.919 22.0564 137.92 23.8712 136.212 23.8712H125.412C123.896 23.8712 124.132 23.1987 124.229 23.0075L124.255 22.9575L124.257 22.9544L124.315 22.8465L126.013 19.8031C126.434 18.8448 125.307 18.5722 124.84 18.504H114.56H114.411C113.763 18.5101 111.179 18.6307 110.347 20.036L108.772 22.8465H119.046C119.265 22.8543 119.796 22.9369 119.467 23.5479L115.72 30.5145H121.656H135.025H138.71C139.567 30.4663 142.754 30.2335 144.514 29.2226C144.526 29.2148 144.541 29.1985 144.553 29.1907C145.748 28.4929 146.492 27.2782 146.492 25.9067C146.492 25.1799 146.254 24.5026 145.841 23.9249L145.849 23.9212L138.523 13.5838C137.94 12.7623 139.696 12.4614 139.696 12.4614H149.285C150.845 12.2473 154.115 11.2666 156 6.88375H140.608Z" fill="#003F83"/>
</svg>
